<svg height="496pt" viewBox="0 0 496 496" width="496pt" xmlns="http://www.w3.org/2000/svg"><path d="m8 104h480v384h-480zm0 0" fill="#b8cbd9"/><path d="m8 104v331.617188c29.3125 8.015624 60.144531 12.382812 92 12.382812 190.855469 0 345.742188-153.65625 347.894531-344zm0 0" fill="#e8eff4"/><path d="m8 8h480v96h-480zm0 0" fill="#e4725f"/><g fill="#f0d365"><path d="m72 56c0 8.835938-7.164062 16-16 16s-16-7.164062-16-16 7.164062-16 16-16 16 7.164062 16 16zm0 0"/><path d="m136 56c0 8.835938-7.164062 16-16 16s-16-7.164062-16-16 7.164062-16 16-16 16 7.164062 16 16zm0 0"/><path d="m200 56c0 8.835938-7.164062 16-16 16s-16-7.164062-16-16 7.164062-16 16-16 16 7.164062 16 16zm0 0"/></g><path d="m488 496h-480c-4.425781 0-8-3.574219-8-8v-480c0-4.425781 3.574219-8 8-8h480c4.425781 0 8 3.574219 8 8v480c0 4.425781-3.574219 8-8 8zm-472-16h464v-464h-464zm0 0"/><path d="m56 80c-13.230469 0-24-10.769531-24-24s10.769531-24 24-24 24 10.769531 24 24-10.769531 24-24 24zm0-32c-4.414062 0-8 3.585938-8 8s3.585938 8 8 8 8-3.585938 8-8-3.585938-8-8-8zm0 0"/><path d="m120 80c-13.230469 0-24-10.769531-24-24s10.769531-24 24-24 24 10.769531 24 24-10.769531 24-24 24zm0-32c-4.414062 0-8 3.585938-8 8s3.585938 8 8 8 8-3.585938 8-8-3.585938-8-8-8zm0 0"/><path d="m184 80c-13.230469 0-24-10.769531-24-24s10.769531-24 24-24 24 10.769531 24 24-10.769531 24-24 24zm0-32c-4.414062 0-8 3.585938-8 8s3.585938 8 8 8 8-3.585938 8-8-3.585938-8-8-8zm0 0"/><path d="m8 96h480v16h-480zm0 0"/><path d="m160 128h16v336h-16zm0 0"/><path d="m320 128h16v336h-16zm0 0"/><path d="m80 352h336v16h-336zm0 0"/><path d="m80 224h336v16h-336zm0 0"/><path d="m104 464c-22.054688 0-40-17.945312-40-40s17.945312-40 40-40 40 17.945312 40 40-17.945312 40-40 40zm0-64c-13.230469 0-24 10.769531-24 24s10.769531 24 24 24 24-10.769531 24-24-10.769531-24-24-24zm0 0"/><path d="m248 336c-22.054688 0-40-17.945312-40-40s17.945312-40 40-40 40 17.945312 40 40-17.945312 40-40 40zm0-64c-13.230469 0-24 10.769531-24 24s10.769531 24 24 24 24-10.769531 24-24-10.769531-24-24-24zm0 0"/><path d="m248 208c-22.054688 0-40-17.945312-40-40s17.945312-40 40-40 40 17.945312 40 40-17.945312 40-40 40zm0-64c-13.230469 0-24 10.769531-24 24s10.769531 24 24 24 24-10.769531 24-24-10.769531-24-24-24zm0 0"/><path d="m346.339844 202.34375 64-64 11.3125 11.3125-64 64.003906zm0 0"/><path d="m346.339844 149.65625 11.3125-11.3125 64 64-11.3125 11.316406zm0 0"/><path d="m346.335938 322.34375 64.003906-64 11.3125 11.3125-64 64zm0 0"/><path d="m346.335938 269.65625 11.316406-11.3125 64 64-11.3125 11.3125zm0 0"/><path d="m346.335938 450.34375 64.003906-64 11.3125 11.3125-64 64zm0 0"/><path d="m346.335938 397.65625 11.316406-11.3125 64 64-11.3125 11.3125zm0 0"/></svg>